<svg id="svg" version="1.1" xmlns="http://www.w3.org/2000/svg" xmlns:xlink="http://www.w3.org/1999/xlink" width="400" height="397.5609756097561" viewBox="0, 0, 400,397.5609756097561"><g id="svgg"><path id="path0" d="M148.552 67.774 C 147.236 68.417,145.534 68.815,143.294 69.001 C 140.407 69.242,139.832 69.420,138.815 70.392 C 138.174 71.005,136.603 71.831,135.325 72.226 C 134.048 72.622,132.018 73.523,130.815 74.227 C 129.612 74.932,127.846 75.682,126.890 75.894 C 125.930 76.107,124.596 76.798,123.908 77.440 C 123.224 78.078,121.680 79.095,120.477 79.701 C 119.274 80.306,117.932 81.120,117.495 81.510 C 117.058 81.900,115.760 82.689,114.612 83.263 C 113.464 83.838,112.525 84.445,112.525 84.613 C 112.525 84.781,111.943 85.253,111.233 85.664 C 110.522 86.074,109.119 87.167,108.114 88.092 C 107.110 89.018,105.759 90.049,105.113 90.383 C 101.893 92.048,88.373 105.847,85.080 110.829 C 84.179 112.192,83.005 113.651,82.472 114.070 C 81.939 114.489,81.238 115.466,80.914 116.241 C 80.591 117.016,80.080 117.794,79.779 117.970 C 79.169 118.328,77.932 120.571,77.932 121.321 C 77.932 121.588,77.635 122.134,77.272 122.536 C 76.428 123.469,76.702 123.725,78.221 123.421 C 78.943 123.277,79.599 122.814,79.844 122.275 C 80.475 120.891,82.656 118.553,84.877 116.879 C 85.978 116.049,88.042 114.267,89.463 112.918 C 90.885 111.569,92.707 110.126,93.512 109.711 C 94.317 109.297,95.089 108.774,95.228 108.550 C 95.654 107.860,103.173 103.028,105.222 102.128 C 106.286 101.660,107.583 100.946,108.104 100.541 C 108.624 100.136,109.786 99.606,110.684 99.364 C 111.583 99.122,112.768 98.605,113.316 98.215 C 114.973 97.039,118.897 95.555,122.266 94.830 C 124.016 94.454,125.821 93.913,126.278 93.627 C 127.716 92.727,130.192 92.245,135.457 91.838 C 138.262 91.621,141.541 91.160,142.744 90.813 C 146.670 89.679,158.509 89.575,162.749 90.638 C 164.836 91.160,168.479 91.643,171.879 91.847 C 177.810 92.203,178.505 92.343,180.119 93.504 C 180.777 93.978,182.600 94.398,185.513 94.747 C 190.039 95.291,192.196 96.259,193.245 98.219 C 193.479 98.656,194.334 98.996,195.633 99.168 C 197.074 99.359,197.995 99.760,198.833 100.562 C 199.481 101.180,201.057 102.068,202.337 102.535 C 203.616 103.001,205.475 104.098,206.468 104.972 C 207.461 105.846,208.456 106.561,208.679 106.561 C 208.902 106.561,209.614 107.007,210.263 107.552 C 210.911 108.098,212.215 108.983,213.161 109.521 C 214.107 110.058,215.754 111.267,216.820 112.207 C 217.887 113.147,219.671 114.722,220.784 115.706 C 227.795 121.900,237.763 133.314,239.361 136.978 C 239.742 137.853,241.029 139.487,242.220 140.608 L 244.384 142.648 257.679 142.920 C 264.991 143.069,281.173 143.135,293.638 143.067 L 316.302 142.942 316.962 141.620 C 317.685 140.173,316.962 137.642,315.294 135.785 C 314.901 135.348,314.111 133.926,313.539 132.625 C 312.967 131.324,312.046 129.667,311.494 128.942 C 310.941 128.217,310.061 126.657,309.539 125.476 C 309.016 124.294,308.208 122.910,307.743 122.399 C 306.872 121.443,305.374 119.332,302.500 115.010 C 301.592 113.643,300.717 112.525,300.556 112.525 C 300.395 112.525,299.853 111.861,299.352 111.049 C 298.077 108.986,291.901 102.135,288.302 98.790 C 286.644 97.249,284.734 95.460,284.056 94.814 C 282.837 93.651,280.356 91.656,277.052 89.182 C 270.680 84.410,269.408 83.499,269.123 83.499 C 268.947 83.499,267.815 82.867,266.607 82.094 C 265.400 81.322,264.099 80.577,263.717 80.439 C 263.335 80.301,261.839 79.432,260.393 78.508 C 258.947 77.583,257.158 76.696,256.417 76.535 C 255.676 76.375,254.257 75.834,253.263 75.334 C 252.270 74.834,250.435 74.127,249.185 73.763 C 247.935 73.400,245.852 72.672,244.555 72.145 C 235.065 68.289,216.060 65.811,211.947 67.893 L 210.574 68.588 210.671 81.113 C 210.725 88.002,210.870 94.463,210.995 95.471 C 211.354 98.385,209.115 100.330,207.336 98.649 C 206.794 98.137,198.647 95.590,195.825 95.050 C 194.513 94.800,192.813 94.335,192.048 94.019 C 191.282 93.703,189.165 93.095,187.343 92.668 C 185.521 92.241,182.569 91.266,180.783 90.500 C 178.996 89.734,175.835 88.624,173.757 88.033 C 171.680 87.443,168.728 86.467,167.197 85.865 C 165.666 85.263,163.467 84.646,162.311 84.493 C 159.706 84.149,158.772 82.690,159.708 80.430 C 160.056 79.592,160.233 77.466,160.223 74.267 L 160.208 69.384 158.534 68.200 C 156.178 66.536,151.491 66.336,148.552 67.774 M67.197 248.999 C 65.867 249.724,65.854 252.384,67.168 254.894 C 67.677 255.865,68.975 258.360,70.054 260.437 C 72.834 265.793,76.929 272.451,79.201 275.310 C 79.706 275.946,80.388 276.944,80.716 277.529 C 81.044 278.114,81.890 279.294,82.597 280.151 C 83.303 281.008,85.190 283.320,86.790 285.288 C 94.166 294.362,107.140 306.032,115.469 311.084 C 116.146 311.495,117.594 312.423,118.688 313.147 C 119.781 313.871,121.552 314.837,122.622 315.294 C 123.692 315.750,125.324 316.635,126.249 317.259 C 127.174 317.883,128.625 318.616,129.472 318.886 C 130.320 319.157,131.909 319.869,133.002 320.468 C 134.095 321.067,136.113 321.861,137.485 322.233 C 138.857 322.605,141.631 323.592,143.648 324.427 C 145.665 325.261,148.305 326.064,149.514 326.210 C 150.723 326.357,152.474 326.909,153.406 327.438 C 155.228 328.474,157.901 329.051,162.624 329.429 C 164.264 329.560,166.859 329.925,168.390 330.240 C 175.556 331.715,193.336 331.971,191.944 330.579 C 191.873 330.508,189.586 329.982,186.862 329.411 C 184.137 328.840,181.282 328.005,180.517 327.556 C 179.751 327.108,178.499 326.515,177.734 326.240 C 174.685 325.145,172.252 323.104,172.724 322.039 C 172.982 321.459,173.251 316.074,173.399 308.549 C 173.534 301.660,173.770 295.577,173.922 295.030 C 174.155 294.199,173.871 293.687,172.190 291.903 C 171.084 290.730,170.179 289.616,170.179 289.428 C 170.179 289.240,169.597 288.794,168.887 288.437 C 168.176 288.080,166.135 286.331,164.352 284.550 C 162.568 282.769,160.331 280.596,159.380 279.722 C 156.786 277.337,151.316 271.266,149.528 268.787 C 148.660 267.584,147.628 266.247,147.235 265.814 C 146.036 264.495,143.716 261.080,141.925 257.997 C 140.990 256.387,139.852 254.533,139.396 253.877 C 138.940 253.221,138.374 252.335,138.139 251.909 C 136.966 249.780,137.129 249.801,117.694 249.341 C 81.997 248.497,68.288 248.404,67.197 248.999 M307.849 266.396 C 307.187 267.457,307.221 267.594,308.151 267.594 C 308.734 267.594,308.946 267.329,308.946 266.600 C 308.946 265.403,308.519 265.324,307.849 266.396 M302.209 272.402 C 301.456 272.806,299.667 274.284,298.233 275.688 C 296.799 277.092,294.516 278.986,293.158 279.899 C 291.801 280.811,290.127 282.084,289.438 282.727 C 288.750 283.370,287.965 283.897,287.694 283.897 C 287.423 283.897,286.860 284.275,286.443 284.738 C 285.412 285.884,282.802 287.614,281.113 288.271 C 280.348 288.569,279.134 289.317,278.416 289.933 C 277.697 290.549,276.913 291.054,276.674 291.054 C 276.434 291.054,274.695 291.934,272.811 293.009 C 270.926 294.085,268.267 295.253,266.901 295.604 C 265.536 295.956,263.773 296.681,262.984 297.216 C 262.196 297.752,260.897 298.295,260.099 298.424 C 258.228 298.726,253.244 300.418,250.688 301.618 C 249.590 302.134,247.354 302.759,245.718 303.007 C 225.893 306.015,223.759 307.276,223.890 315.905 C 223.988 322.274,224.071 321.745,222.769 323.047 C 221.420 324.396,219.458 325.411,215.827 326.640 C 214.284 327.162,212.629 327.958,212.148 328.410 C 211.454 329.062,210.266 329.349,206.388 329.802 C 199.962 330.553,199.930 330.815,206.267 330.815 C 210.164 330.815,211.612 330.677,212.023 330.267 C 212.756 329.533,214.539 329.279,222.000 328.845 C 226.595 328.578,228.528 328.312,229.157 327.860 C 229.632 327.520,230.378 326.983,230.815 326.665 C 231.252 326.348,233.579 325.525,235.984 324.836 C 238.390 324.146,240.910 323.245,241.586 322.832 C 242.261 322.420,244.009 321.832,245.470 321.526 C 247.211 321.160,248.454 320.640,249.080 320.014 C 249.605 319.489,251.078 318.631,252.353 318.107 C 253.629 317.582,255.516 316.577,256.547 315.873 C 257.578 315.170,259.321 314.363,260.420 314.081 C 261.597 313.780,262.504 313.300,262.627 312.915 C 262.741 312.556,263.442 311.918,264.186 311.498 C 264.930 311.079,266.700 309.903,268.121 308.885 C 269.542 307.867,271.079 306.916,271.536 306.771 C 271.993 306.625,272.551 306.163,272.776 305.743 C 273.001 305.322,273.758 304.682,274.458 304.320 C 275.593 303.733,278.210 301.576,282.112 298.012 C 284.405 295.917,291.996 288.288,293.506 286.559 C 294.308 285.642,296.043 283.676,297.361 282.191 C 298.679 280.706,299.869 279.140,300.005 278.711 C 300.141 278.283,300.407 277.932,300.595 277.932 C 301.293 277.932,304.175 272.922,304.175 271.710 C 304.175 271.455,303.593 271.660,302.209 272.402 " stroke="none" fill="#2c3f7c" fill-rule="evenodd"></path><path id="path1" d="M0.000 198.807 L 0.000 397.614 200.000 397.614 L 400.000 397.614 400.000 198.807 L 400.000 0.000 200.000 0.000 L 0.000 0.000 0.000 198.807 M204.374 57.687 C 206.670 57.904,211.143 58.513,214.314 59.040 C 217.485 59.567,221.421 60.204,223.062 60.457 C 224.702 60.709,226.812 61.248,227.751 61.656 C 228.690 62.063,231.284 62.780,233.516 63.250 C 235.748 63.719,239.364 64.788,241.551 65.624 C 243.738 66.461,246.264 67.336,247.165 67.570 C 248.066 67.804,249.268 68.361,249.837 68.808 C 250.406 69.256,252.084 70.035,253.567 70.540 C 256.495 71.537,263.729 75.202,265.010 76.337 C 265.447 76.725,266.610 77.420,267.594 77.882 C 269.623 78.834,273.562 81.524,275.877 83.537 C 276.733 84.281,278.383 85.569,279.544 86.397 C 285.974 90.988,300.994 106.360,300.994 108.349 C 300.994 108.648,301.335 109.001,301.751 109.133 C 302.167 109.265,303.190 110.395,304.024 111.645 C 304.858 112.894,305.853 114.279,306.235 114.723 C 306.618 115.166,307.340 116.252,307.839 117.135 C 308.339 118.019,309.249 119.445,309.863 120.305 C 312.325 123.756,314.305 127.139,314.949 128.991 C 315.322 130.065,316.103 131.497,316.684 132.172 C 318.130 133.852,320.875 140.211,320.947 142.047 C 321.018 143.856,319.859 145.276,317.742 145.974 C 314.912 146.908,245.938 146.169,243.738 145.182 C 241.615 144.229,238.868 141.509,238.062 139.563 C 237.746 138.797,236.820 137.455,236.006 136.581 C 235.192 135.706,234.200 134.364,233.803 133.598 C 233.405 132.833,231.452 130.463,229.462 128.331 C 227.473 126.200,225.845 124.310,225.845 124.132 C 225.845 123.954,224.643 122.835,223.173 121.646 C 221.704 120.456,219.691 118.617,218.700 117.559 C 217.709 116.500,216.445 115.397,215.890 115.107 C 215.335 114.817,212.942 113.139,210.573 111.377 C 208.203 109.615,205.883 108.055,205.418 107.909 C 204.953 107.764,203.857 107.165,202.982 106.579 C 202.107 105.994,200.566 105.207,199.557 104.832 C 198.548 104.457,196.580 103.465,195.183 102.628 C 193.787 101.791,191.668 100.876,190.476 100.594 C 189.283 100.311,187.395 99.663,186.281 99.153 C 185.167 98.643,182.492 97.863,180.336 97.419 C 178.180 96.976,173.984 95.945,171.012 95.129 L 165.606 93.645 152.883 93.641 L 140.159 93.638 133.797 95.298 C 130.298 96.212,126.093 97.266,124.453 97.641 C 122.813 98.016,120.666 98.721,119.682 99.207 C 118.698 99.692,116.909 100.316,115.706 100.591 C 114.503 100.867,113.161 101.409,112.724 101.797 C 112.286 102.184,110.246 103.369,108.190 104.431 C 102.204 107.523,100.864 108.285,99.396 109.429 C 98.635 110.022,96.402 111.682,94.433 113.117 C 89.187 116.941,81.302 124.236,78.877 127.508 C 78.258 128.343,77.058 129.831,76.211 130.815 C 75.363 131.799,74.348 133.231,73.954 133.996 C 73.561 134.761,72.760 135.835,72.174 136.381 C 71.589 136.928,70.763 138.180,70.339 139.164 C 69.277 141.628,65.098 144.462,64.058 143.422 C 63.324 142.687,63.532 140.162,64.391 139.384 C 64.816 139.000,65.277 138.122,65.415 137.434 C 65.770 135.664,69.908 127.431,71.075 126.172 C 71.610 125.594,72.305 124.394,72.618 123.506 C 72.932 122.618,73.519 121.528,73.923 121.085 C 74.328 120.641,74.930 119.742,75.261 119.085 C 75.593 118.429,76.777 116.752,77.892 115.357 C 79.008 113.962,79.920 112.671,79.920 112.487 C 79.920 112.304,80.718 111.208,81.694 110.053 C 82.669 108.898,84.324 106.909,85.372 105.634 C 87.728 102.766,102.143 88.270,102.639 88.270 C 102.837 88.270,103.756 87.579,104.681 86.733 C 105.605 85.888,106.922 84.910,107.606 84.561 C 108.290 84.212,108.943 83.684,109.056 83.388 C 109.336 82.658,115.978 78.184,117.630 77.613 C 118.361 77.360,119.305 76.712,119.730 76.173 C 120.154 75.634,121.703 74.590,123.173 73.855 C 124.643 73.119,126.650 72.053,127.634 71.487 C 128.618 70.920,130.009 70.334,130.725 70.184 C 131.441 70.035,132.552 69.471,133.193 68.932 C 134.721 67.646,144.218 63.885,147.515 63.260 C 148.936 62.991,150.905 62.357,151.889 61.852 C 152.873 61.347,154.662 60.731,155.865 60.484 C 161.285 59.367,170.811 57.619,173.257 57.292 C 176.505 56.857,198.542 57.137,204.374 57.687 M116.103 162.422 C 133.739 163.258,135.778 163.619,139.482 166.555 C 146.487 172.107,147.072 175.065,146.417 201.590 L 146.078 215.308 145.006 217.495 C 143.132 221.318,140.498 224.176,137.376 225.775 C 131.782 228.638,101.738 230.331,87.078 228.609 C 85.437 228.416,80.889 227.887,76.970 227.431 C 69.462 226.560,66.599 225.733,65.278 224.054 C 64.895 223.567,64.231 223.057,63.802 222.920 C 58.672 221.282,57.405 212.098,58.391 183.698 L 58.660 175.944 60.083 172.962 C 61.472 170.053,62.210 169.135,65.571 166.134 C 69.918 162.252,86.638 161.024,116.103 162.422 M176.413 164.049 C 177.030 164.505,177.893 165.438,178.330 166.124 C 178.767 166.809,179.394 167.469,179.722 167.590 C 180.050 167.711,181.481 169.156,182.903 170.801 C 186.307 174.740,193.682 182.669,194.096 182.834 C 194.275 182.906,195.811 181.615,197.509 179.964 C 201.321 176.258,200.740 176.893,203.560 173.360 C 211.969 162.826,211.703 162.945,226.487 163.103 L 237.447 163.221 238.207 164.159 C 240.047 166.434,239.700 166.983,230.452 176.410 C 225.769 181.184,220.804 186.282,219.418 187.739 C 218.032 189.197,216.582 190.507,216.196 190.651 C 215.267 190.997,213.917 193.695,213.917 195.203 C 213.917 196.989,215.013 198.481,218.619 201.603 C 220.408 203.151,222.143 204.944,222.476 205.588 C 222.810 206.232,223.251 206.759,223.458 206.759 C 223.763 206.759,227.277 210.150,230.219 213.283 C 230.547 213.633,232.917 215.948,235.487 218.429 C 240.741 223.502,241.289 224.751,239.183 226.857 L 238.207 227.833 226.956 227.824 C 214.165 227.814,213.820 227.745,210.934 224.625 C 210.060 223.679,208.449 221.994,207.356 220.881 C 204.476 217.949,201.590 214.497,201.590 213.983 C 201.590 213.739,201.063 213.266,200.417 212.933 C 199.772 212.599,198.565 211.506,197.734 210.504 C 196.903 209.501,195.703 208.409,195.068 208.076 L 193.914 207.471 189.617 211.986 C 181.571 220.440,178.564 223.656,177.341 225.116 C 175.233 227.630,174.015 227.833,160.992 227.833 L 149.561 227.833 148.737 226.785 C 147.497 225.209,147.622 222.939,149.006 221.904 C 149.607 221.455,150.213 220.950,150.352 220.782 C 151.879 218.935,164.979 206.362,165.376 206.362 C 165.612 206.362,165.805 206.127,165.805 205.841 C 165.805 205.279,170.480 200.690,171.739 200.016 C 172.843 199.425,174.950 196.152,174.950 195.028 C 174.950 193.666,173.633 191.895,169.760 188.051 C 155.002 173.404,149.790 167.574,150.082 166.042 C 150.637 163.135,151.119 163.035,164.087 163.135 C 174.745 163.216,175.346 163.261,176.413 164.049 M267.793 163.466 C 269.818 164.025,271.798 166.085,277.829 173.906 C 278.651 174.973,280.263 176.894,281.412 178.177 C 282.560 179.460,283.499 180.689,283.499 180.908 C 283.499 181.127,284.032 181.781,284.684 182.361 C 285.335 182.942,285.973 183.748,286.102 184.154 C 286.282 184.720,286.730 184.891,288.037 184.891 C 289.872 184.891,290.306 184.566,292.172 181.795 C 293.911 179.213,297.411 174.622,297.747 174.483 C 297.918 174.412,298.638 173.504,299.346 172.465 C 300.055 171.426,300.801 170.577,301.005 170.577 C 301.209 170.577,301.721 169.898,302.144 169.070 C 302.567 168.241,303.635 166.819,304.517 165.910 C 307.400 162.939,307.225 162.972,319.534 163.103 L 330.489 163.221 331.248 164.159 C 332.356 165.528,332.247 167.545,331.022 168.348 C 330.480 168.703,329.745 169.558,329.388 170.247 C 328.705 171.568,326.804 173.820,324.412 176.143 C 323.623 176.909,322.771 177.931,322.517 178.414 C 322.106 179.197,318.642 183.399,316.193 186.085 C 315.695 186.631,314.297 188.241,313.085 189.662 C 311.874 191.083,310.224 192.980,309.418 193.877 C 308.612 194.775,307.147 196.547,306.163 197.816 C 305.179 199.085,303.641 200.945,302.744 201.950 C 300.344 204.642,300.199 205.393,300.199 215.109 C 300.199 228.001,300.572 227.569,289.264 227.766 C 277.106 227.979,277.803 228.722,277.535 215.246 L 277.336 205.243 274.950 202.700 C 273.638 201.301,271.777 199.138,270.815 197.892 C 269.853 196.646,268.939 195.626,268.785 195.626 C 268.630 195.626,267.431 194.320,266.121 192.724 C 263.493 189.522,257.466 182.732,252.169 177.005 C 250.281 174.964,248.524 172.996,248.264 172.631 C 248.005 172.267,246.881 170.984,245.767 169.781 C 243.135 166.938,243.094 165.021,245.636 163.642 C 246.997 162.903,265.233 162.758,267.793 163.466 M87.674 181.573 C 82.692 182.850,81.611 183.551,81.093 185.839 C 80.372 189.027,80.145 198.963,80.704 202.901 L 81.194 206.349 83.373 207.596 C 89.315 210.996,119.346 210.029,122.693 206.330 C 123.890 205.008,124.399 190.267,123.417 185.370 C 123.108 183.830,121.862 183.058,118.290 182.192 C 115.914 181.616,89.583 181.084,87.674 181.573 M140.043 246.807 C 141.229 247.332,143.280 250.056,146.918 255.935 C 148.231 258.055,149.847 260.338,150.510 261.008 C 151.173 261.678,152.421 263.121,153.283 264.215 C 159.307 271.856,172.785 283.548,179.920 287.325 C 181.014 287.904,182.683 288.908,183.629 289.557 C 184.576 290.206,186.454 291.186,187.804 291.734 C 189.153 292.282,191.112 293.164,192.158 293.694 C 194.882 295.074,204.516 296.941,212.459 297.628 C 216.213 297.953,220.716 298.418,222.465 298.661 C 227.037 299.298,234.222 299.218,238.370 298.485 C 240.338 298.137,244.538 297.560,247.703 297.204 C 251.865 296.735,254.122 296.276,255.855 295.545 C 257.172 294.989,260.040 294.004,262.227 293.356 C 264.414 292.707,266.798 291.833,267.526 291.412 C 268.253 290.991,269.985 290.280,271.375 289.831 C 272.764 289.382,274.123 288.747,274.394 288.421 C 274.664 288.095,276.511 286.926,278.497 285.823 C 284.664 282.398,285.724 281.747,287.129 280.517 C 287.879 279.861,289.641 278.519,291.046 277.535 C 292.451 276.551,294.423 274.940,295.428 273.956 C 296.434 272.972,298.500 270.988,300.020 269.548 C 301.540 268.107,303.499 266.070,304.374 265.020 C 305.249 263.970,306.715 262.354,307.633 261.429 C 308.552 260.503,309.412 259.310,309.546 258.777 C 309.680 258.244,310.718 256.628,311.853 255.185 C 312.988 253.743,314.217 252.016,314.584 251.348 C 316.099 248.591,320.300 248.352,319.815 251.050 C 319.372 253.513,317.622 257.876,316.681 258.862 C 316.152 259.417,315.462 260.722,315.149 261.763 C 314.836 262.803,314.143 264.228,313.610 264.928 C 313.076 265.629,312.248 266.971,311.770 267.911 C 311.291 268.850,310.305 270.281,309.578 271.091 C 308.851 271.902,307.868 273.280,307.392 274.155 C 306.327 276.117,305.086 277.877,302.766 280.716 C 301.783 281.918,299.922 284.245,298.631 285.885 C 294.007 291.759,282.992 302.544,278.926 305.178 C 277.833 305.886,276.581 306.871,276.143 307.366 C 275.706 307.862,274.420 308.865,273.287 309.596 C 272.153 310.327,271.112 311.109,270.973 311.333 C 270.835 311.557,269.973 312.116,269.059 312.574 C 268.144 313.033,266.948 313.819,266.402 314.322 C 265.855 314.825,264.602 315.643,263.618 316.140 C 262.634 316.637,261.062 317.560,260.125 318.193 C 259.187 318.825,257.577 319.621,256.546 319.962 C 255.515 320.304,254.218 321.003,253.663 321.517 C 253.108 322.032,251.498 322.922,250.085 323.496 C 248.672 324.070,246.695 324.956,245.691 325.465 C 244.687 325.974,242.508 326.738,240.849 327.163 C 239.190 327.588,237.311 328.307,236.673 328.761 C 236.035 329.215,233.383 330.156,230.779 330.851 C 228.174 331.546,224.523 332.519,222.664 333.013 C 218.783 334.045,195.335 336.149,192.247 335.742 C 191.590 335.655,185.698 335.221,179.152 334.777 C 168.112 334.029,166.772 333.855,160.663 332.377 C 149.883 329.770,149.465 329.650,148.331 328.842 C 147.731 328.415,145.614 327.711,143.625 327.277 C 141.637 326.843,139.470 326.208,138.810 325.867 C 138.149 325.525,136.058 324.685,134.163 323.999 C 132.267 323.313,130.157 322.274,129.474 321.689 C 128.790 321.105,127.455 320.403,126.507 320.129 C 124.274 319.482,116.933 315.493,115.905 314.367 C 115.467 313.888,114.340 313.157,113.401 312.743 C 112.461 312.328,111.566 311.788,111.413 311.542 C 111.259 311.295,110.290 310.607,109.260 310.012 C 108.230 309.418,106.530 308.126,105.483 307.142 C 101.575 303.471,101.008 302.982,100.666 302.982 C 100.474 302.982,99.333 301.953,98.131 300.696 C 96.930 299.438,95.606 298.105,95.190 297.734 C 94.019 296.688,93.639 296.321,91.438 294.110 C 89.654 292.318,88.858 291.447,86.412 288.612 C 86.156 288.315,85.460 287.627,84.867 287.083 C 84.273 286.539,83.337 285.380,82.786 284.507 C 82.235 283.634,81.532 282.668,81.223 282.359 C 80.914 282.050,80.362 281.330,79.997 280.759 C 79.632 280.189,78.571 278.775,77.639 277.619 C 76.707 276.462,75.944 275.358,75.944 275.164 C 75.944 274.971,75.283 273.949,74.475 272.893 C 73.667 271.838,72.764 270.276,72.468 269.424 C 72.173 268.571,71.225 267.070,70.361 266.089 C 69.497 265.108,68.409 263.259,67.943 261.980 C 67.476 260.701,66.848 259.450,66.545 259.199 C 66.243 258.948,65.709 257.737,65.357 256.509 C 65.006 255.280,64.492 254.006,64.216 253.678 C 61.820 250.832,62.097 247.442,64.811 246.394 C 66.071 245.908,138.917 246.307,140.043 246.807 " stroke="none" fill="#fbfbfb" fill-rule="evenodd"></path><path id="path2" d="M79.125 164.876 C 72.100 165.563,70.614 165.993,66.610 168.500 C 62.392 171.141,61.098 175.678,60.404 190.258 C 59.662 205.839,60.191 212.129,62.699 217.551 L 64.178 220.749 67.691 222.514 C 74.075 225.720,96.801 227.145,120.875 225.849 C 141.913 224.716,143.595 222.661,144.159 197.416 C 144.512 181.638,144.169 177.926,141.914 173.120 L 140.254 169.583 136.827 167.920 C 132.604 165.871,130.543 165.480,121.471 165.008 C 114.876 164.664,82.325 164.563,79.125 164.876 M153.849 166.231 L 153.025 167.054 154.916 169.114 C 155.955 170.246,157.355 171.719,158.025 172.385 C 159.235 173.588,165.042 179.622,172.851 187.791 C 180.599 195.896,182.136 193.038,156.676 217.863 L 150.927 223.469 151.816 224.359 C 152.680 225.224,152.969 225.252,162.413 225.368 C 174.031 225.510,173.684 225.617,178.378 220.432 C 186.664 211.278,193.363 204.374,193.958 204.374 C 194.159 204.374,195.000 204.911,195.825 205.567 C 196.651 206.223,197.453 206.759,197.609 206.759 C 197.765 206.759,199.692 208.772,201.893 211.233 C 204.093 213.693,206.731 216.600,207.756 217.694 C 208.781 218.787,209.848 220.003,210.128 220.395 C 210.407 220.787,211.763 222.084,213.141 223.278 L 215.647 225.447 225.288 225.447 L 234.929 225.447 236.197 224.381 C 237.383 223.383,237.418 223.281,236.747 222.790 C 235.700 222.024,213.181 199.675,211.644 197.875 C 208.980 194.757,208.900 194.876,224.147 179.303 C 237.053 166.122,236.323 167.022,234.902 166.027 C 233.433 164.998,216.036 165.122,213.970 166.175 C 213.021 166.660,209.798 169.930,205.253 175.022 C 194.450 187.124,194.709 186.972,191.020 183.319 C 188.117 180.445,183.987 175.951,181.504 172.962 C 175.044 165.189,175.551 165.408,163.932 165.408 C 155.097 165.408,154.634 165.445,153.849 166.231 M247.317 166.202 L 246.471 167.048 248.981 169.712 C 250.362 171.178,252.207 173.262,253.082 174.343 C 253.956 175.425,255.313 176.958,256.097 177.750 C 256.880 178.543,258.719 180.639,260.184 182.409 C 261.648 184.179,262.975 185.685,263.133 185.756 C 263.290 185.827,264.491 187.137,265.801 188.668 C 267.111 190.199,270.380 193.898,273.066 196.889 C 279.525 204.083,279.267 203.344,279.174 214.377 L 279.099 223.386 280.404 224.317 C 282.457 225.782,293.751 225.962,295.828 224.563 L 297.217 223.627 297.416 214.696 C 297.638 204.694,297.923 203.610,301.343 199.777 C 302.135 198.889,304.483 196.134,306.561 193.655 C 308.638 191.175,311.203 188.145,312.261 186.919 C 313.319 185.694,314.793 183.976,315.537 183.101 C 316.281 182.227,317.891 180.348,319.115 178.926 C 320.339 177.505,321.945 175.626,322.683 174.751 C 323.422 173.877,324.837 172.217,325.829 171.062 C 330.493 165.630,330.510 165.643,318.160 165.487 L 308.712 165.368 306.344 167.917 C 303.702 170.760,301.667 173.243,298.164 177.900 C 296.862 179.632,295.221 181.705,294.518 182.507 C 293.815 183.308,292.938 184.527,292.568 185.214 C 291.699 186.830,289.645 188.068,287.830 188.070 C 286.428 188.072,280.127 181.297,277.476 176.937 C 277.101 176.320,276.526 175.665,276.199 175.482 C 275.612 175.153,275.202 174.659,271.444 169.741 C 268.238 165.546,268.500 165.626,257.580 165.481 C 248.421 165.359,248.140 165.379,247.317 166.202 M114.115 178.921 C 125.255 179.735,126.833 181.699,126.837 194.754 C 126.840 205.384,125.754 208.395,121.073 210.736 L 119.085 211.730 102.584 211.727 C 83.768 211.725,83.497 211.690,80.829 208.915 C 77.809 205.775,77.749 205.544,77.605 196.571 C 77.395 183.450,79.467 179.822,87.674 178.937 C 91.678 178.505,108.281 178.495,114.115 178.921 " stroke="none" fill="#b9242b" fill-rule="evenodd"></path><path id="path3" d="M179.722 58.734 C 177.740 58.828,175.454 59.117,161.829 61.003 C 159.533 61.320,156.849 61.937,155.865 62.374 C 154.881 62.811,152.734 63.468,151.093 63.835 C 149.453 64.202,146.465 65.198,144.454 66.049 C 142.442 66.899,140.532 67.594,140.210 67.594 C 139.888 67.594,138.224 68.294,136.512 69.149 C 134.800 70.005,132.416 71.165,131.213 71.729 C 127.888 73.287,122.447 76.237,121.720 76.876 C 121.365 77.188,120.179 77.918,119.085 78.498 C 117.992 79.077,115.666 80.614,113.917 81.913 C 112.167 83.212,110.020 84.764,109.145 85.363 C 108.270 85.962,106.821 87.085,105.924 87.858 C 105.028 88.632,103.349 90.070,102.194 91.054 C 99.442 93.397,92.594 100.151,89.846 103.230 C 85.652 107.930,81.394 113.315,80.216 115.408 C 79.754 116.228,79.238 116.899,79.070 116.899 C 78.901 116.899,78.049 118.121,77.176 119.616 C 76.303 121.110,75.318 122.558,74.986 122.833 C 74.655 123.108,74.010 124.332,73.553 125.554 C 73.096 126.776,72.177 128.396,71.511 129.154 C 70.217 130.629,70.152 132.351,71.348 133.546 C 71.822 134.020,72.044 133.819,72.886 132.159 C 73.729 130.497,75.184 128.812,81.601 122.068 C 83.920 119.631,89.597 114.533,92.096 112.644 C 97.508 108.553,98.564 107.797,99.671 107.220 C 100.289 106.898,102.017 105.812,103.510 104.808 C 105.003 103.804,106.445 102.982,106.713 102.982 C 106.981 102.982,108.047 102.445,109.083 101.788 C 110.118 101.132,112.061 100.226,113.400 99.774 C 114.739 99.323,116.705 98.513,117.770 97.974 C 118.834 97.434,121.444 96.537,123.570 95.981 C 125.696 95.424,128.777 94.555,130.417 94.051 C 139.048 91.397,166.832 91.396,175.348 94.049 C 176.988 94.560,180.195 95.433,182.474 95.989 C 184.753 96.546,187.706 97.519,189.035 98.152 C 190.364 98.785,192.167 99.518,193.042 99.782 C 195.078 100.395,202.615 104.053,204.175 105.185 C 204.831 105.661,206.274 106.509,207.381 107.070 C 208.488 107.630,209.638 108.383,209.936 108.743 C 210.235 109.102,211.029 109.678,211.701 110.022 C 215.081 111.752,228.066 123.431,231.366 127.708 C 232.156 128.733,234.001 131.094,235.466 132.956 C 236.931 134.817,238.433 136.931,238.805 137.653 C 239.955 139.887,242.931 143.076,244.265 143.504 C 246.728 144.295,316.157 144.180,317.372 143.384 C 319.294 142.125,318.241 136.620,315.500 133.591 C 315.188 133.245,314.666 132.209,314.341 131.288 C 314.016 130.367,313.230 128.855,312.594 127.928 C 311.959 127.001,310.982 125.337,310.422 124.229 C 309.863 123.122,309.111 121.971,308.749 121.672 C 308.388 121.372,307.725 120.405,307.274 119.522 C 306.439 117.885,303.578 113.833,301.491 111.332 C 300.852 110.567,299.993 109.359,299.582 108.648 C 299.171 107.937,298.714 107.356,298.567 107.356 C 298.421 107.356,297.301 106.119,296.079 104.607 C 293.439 101.339,285.693 93.704,281.511 90.247 C 279.871 88.891,278.171 87.445,277.734 87.034 C 273.414 82.969,253.481 71.173,250.932 71.173 C 250.643 71.173,249.576 70.732,248.563 70.193 C 246.055 68.859,234.376 64.941,230.219 64.039 C 228.360 63.636,225.875 62.922,224.697 62.453 C 223.321 61.904,220.549 61.388,216.944 61.010 C 213.857 60.686,208.469 60.074,204.970 59.652 C 199.156 58.949,185.611 58.457,179.722 58.734 M158.534 68.200 L 160.208 69.384 160.223 74.267 C 160.233 77.466,160.056 79.592,159.708 80.430 C 158.772 82.690,159.706 84.149,162.311 84.493 C 163.467 84.646,165.666 85.263,167.197 85.865 C 168.728 86.467,171.680 87.443,173.757 88.033 C 175.835 88.624,178.996 89.734,180.783 90.500 C 182.569 91.266,185.521 92.241,187.343 92.668 C 189.165 93.095,191.282 93.703,192.048 94.019 C 192.813 94.335,194.513 94.800,195.825 95.050 C 198.647 95.590,206.794 98.137,207.336 98.649 C 209.115 100.330,211.354 98.385,210.995 95.471 C 210.870 94.463,210.725 88.002,210.671 81.113 L 210.574 68.588 211.947 67.893 C 216.060 65.811,235.065 68.289,244.555 72.145 C 245.852 72.672,247.935 73.400,249.185 73.763 C 250.435 74.127,252.270 74.834,253.263 75.334 C 254.257 75.834,255.676 76.375,256.417 76.535 C 257.158 76.696,258.947 77.583,260.393 78.508 C 261.839 79.432,263.335 80.301,263.717 80.439 C 264.099 80.577,265.400 81.322,266.607 82.094 C 267.815 82.867,268.947 83.499,269.123 83.499 C 269.408 83.499,270.680 84.410,277.052 89.182 C 280.356 91.656,282.837 93.651,284.056 94.814 C 284.734 95.460,286.644 97.249,288.302 98.790 C 291.901 102.135,298.077 108.986,299.352 111.049 C 299.853 111.861,300.395 112.525,300.556 112.525 C 300.717 112.525,301.592 113.643,302.500 115.010 C 305.374 119.332,306.872 121.443,307.743 122.399 C 308.208 122.910,309.016 124.294,309.539 125.476 C 310.061 126.657,310.941 128.217,311.494 128.942 C 312.046 129.667,312.967 131.324,313.539 132.625 C 314.111 133.926,314.901 135.348,315.294 135.785 C 316.962 137.642,317.685 140.173,316.962 141.620 L 316.302 142.942 293.638 143.067 C 281.173 143.135,264.991 143.069,257.679 142.920 L 244.384 142.648 242.220 140.608 C 241.029 139.487,239.742 137.853,239.361 136.978 C 237.763 133.314,227.795 121.900,220.784 115.706 C 219.671 114.722,217.887 113.147,216.820 112.207 C 215.754 111.267,214.107 110.058,213.161 109.521 C 212.215 108.983,210.911 108.098,210.263 107.552 C 209.614 107.007,208.902 106.561,208.679 106.561 C 208.456 106.561,207.461 105.846,206.468 104.972 C 205.475 104.098,203.616 103.001,202.337 102.535 C 201.057 102.068,199.481 101.180,198.833 100.562 C 197.995 99.760,197.074 99.359,195.633 99.168 C 194.334 98.996,193.479 98.656,193.245 98.219 C 192.196 96.259,190.039 95.291,185.513 94.747 C 182.600 94.398,180.777 93.978,180.119 93.504 C 178.505 92.343,177.810 92.203,171.879 91.847 C 168.479 91.643,164.836 91.160,162.749 90.638 C 158.509 89.575,146.670 89.679,142.744 90.813 C 141.541 91.160,138.262 91.621,135.457 91.838 C 130.192 92.245,127.716 92.727,126.278 93.627 C 125.821 93.913,124.016 94.454,122.266 94.830 C 118.897 95.555,114.973 97.039,113.316 98.215 C 112.768 98.605,111.583 99.122,110.684 99.364 C 109.786 99.606,108.624 100.136,108.104 100.541 C 107.583 100.946,106.286 101.660,105.222 102.128 C 103.173 103.028,95.654 107.860,95.228 108.550 C 95.089 108.774,94.317 109.297,93.512 109.711 C 92.707 110.126,90.885 111.569,89.463 112.918 C 88.042 114.267,85.978 116.049,84.877 116.879 C 82.656 118.553,80.475 120.891,79.844 122.275 C 79.599 122.814,78.943 123.277,78.221 123.421 C 76.702 123.725,76.428 123.469,77.272 122.536 C 77.635 122.134,77.932 121.588,77.932 121.321 C 77.932 120.571,79.169 118.328,79.779 117.970 C 80.080 117.794,80.591 117.016,80.914 116.241 C 81.238 115.466,81.939 114.489,82.472 114.070 C 83.005 113.651,84.179 112.192,85.080 110.829 C 88.373 105.847,101.893 92.048,105.113 90.383 C 105.759 90.049,107.110 89.018,108.114 88.092 C 109.119 87.167,110.522 86.074,111.233 85.664 C 111.943 85.253,112.525 84.781,112.525 84.613 C 112.525 84.445,113.464 83.838,114.612 83.263 C 115.760 82.689,117.058 81.900,117.495 81.510 C 117.932 81.120,119.274 80.306,120.477 79.701 C 121.680 79.095,123.224 78.078,123.908 77.440 C 124.596 76.798,125.930 76.107,126.890 75.894 C 127.846 75.682,129.612 74.932,130.815 74.227 C 132.018 73.523,134.048 72.622,135.325 72.226 C 136.603 71.831,138.174 71.005,138.815 70.392 C 139.832 69.420,140.407 69.242,143.294 69.001 C 145.534 68.815,147.236 68.417,148.552 67.774 C 151.491 66.336,156.178 66.536,158.534 68.200 M68.566 247.554 C 68.360 247.603,67.701 247.752,67.102 247.884 C 64.424 248.474,64.766 252.869,67.883 257.936 C 68.537 258.998,69.430 260.666,69.869 261.643 C 70.308 262.620,71.317 264.377,72.113 265.547 C 72.908 266.717,73.559 267.819,73.559 267.996 C 73.559 268.173,74.817 270.168,76.355 272.429 C 77.894 274.691,79.637 277.256,80.229 278.131 C 85.415 285.789,98.280 299.228,106.371 305.439 C 107.602 306.384,109.714 308.003,111.064 309.036 C 112.414 310.070,114.235 311.301,115.109 311.773 C 115.984 312.245,117.416 313.135,118.290 313.750 C 120.219 315.107,124.268 317.351,127.237 318.708 C 128.439 319.258,130.586 320.305,132.008 321.035 C 133.429 321.765,135.126 322.489,135.779 322.643 C 136.431 322.798,138.583 323.613,140.560 324.455 C 142.537 325.296,145.403 326.269,146.929 326.615 C 148.454 326.962,150.686 327.679,151.889 328.209 C 153.091 328.739,155.775 329.457,157.853 329.805 C 159.930 330.153,163.885 330.965,166.640 331.610 C 179.243 334.556,207.832 334.651,218.974 331.782 C 221.113 331.232,224.959 330.348,227.520 329.818 C 230.082 329.289,233.047 328.415,234.109 327.876 C 235.172 327.338,237.177 326.603,238.565 326.243 C 239.954 325.884,242.132 325.063,243.406 324.420 C 244.681 323.776,246.753 322.869,248.011 322.404 C 249.269 321.938,250.753 321.239,251.310 320.850 C 251.866 320.460,253.337 319.693,254.579 319.144 C 255.820 318.594,257.633 317.597,258.607 316.927 C 259.580 316.257,260.820 315.541,261.360 315.335 C 263.807 314.405,273.633 307.441,279.861 302.223 C 285.854 297.202,297.636 285.063,300.199 281.269 C 300.527 280.783,302.068 278.715,303.623 276.674 C 305.178 274.633,306.747 272.383,307.110 271.675 C 307.472 270.968,308.287 269.798,308.920 269.076 C 309.554 268.355,310.446 266.697,310.903 265.393 C 311.384 264.018,312.144 262.720,312.712 262.303 C 313.787 261.513,314.475 259.047,313.806 258.379 C 313.322 257.895,310.934 259.495,310.934 260.303 C 310.934 261.726,296.080 276.178,290.067 280.605 C 285.435 284.015,278.598 288.268,275.149 289.886 C 274.165 290.348,271.928 291.400,270.179 292.224 C 268.429 293.049,265.484 294.211,263.634 294.807 C 261.785 295.403,259.795 296.137,259.214 296.437 C 258.633 296.738,255.584 297.429,252.438 297.974 C 249.293 298.519,245.467 299.232,243.936 299.560 C 235.595 301.345,224.159 301.387,215.467 299.663 C 212.755 299.125,208.495 298.480,205.998 298.230 C 203.502 297.979,200.499 297.437,199.325 297.024 C 198.151 296.611,196.167 296.065,194.917 295.809 C 193.667 295.554,190.787 294.379,188.518 293.199 C 186.249 292.019,184.208 291.054,183.983 291.054 C 183.758 291.054,182.983 290.603,182.261 290.052 C 181.538 289.501,179.732 288.426,178.247 287.664 C 176.762 286.901,174.294 285.295,172.763 284.094 C 171.233 282.893,169.459 281.597,168.821 281.214 C 167.397 280.357,159.826 273.688,157.654 271.375 C 153.010 266.431,148.938 261.635,147.818 259.788 C 147.438 259.161,146.543 257.910,145.830 257.007 C 145.117 256.105,143.757 254.106,142.809 252.565 C 140.141 248.229,140.570 248.420,132.697 248.068 C 126.529 247.792,69.475 247.335,68.566 247.554 M117.694 249.341 C 137.129 249.801,136.966 249.780,138.139 251.909 C 138.374 252.335,138.940 253.221,139.396 253.877 C 139.852 254.533,140.990 256.387,141.925 257.997 C 143.716 261.080,146.036 264.495,147.235 265.814 C 147.628 266.247,148.660 267.584,149.528 268.787 C 151.316 271.266,156.786 277.337,159.380 279.722 C 160.331 280.596,162.568 282.769,164.352 284.550 C 166.135 286.331,168.176 288.080,168.887 288.437 C 169.597 288.794,170.179 289.240,170.179 289.428 C 170.179 289.616,171.084 290.730,172.190 291.903 C 173.871 293.687,174.155 294.199,173.922 295.030 C 173.770 295.577,173.534 301.660,173.399 308.549 C 173.251 316.074,172.982 321.459,172.724 322.039 C 172.252 323.104,174.685 325.145,177.734 326.240 C 178.499 326.515,179.751 327.108,180.517 327.556 C 181.282 328.005,184.137 328.840,186.862 329.411 C 189.586 329.982,191.873 330.508,191.944 330.579 C 193.336 331.971,175.556 331.715,168.390 330.240 C 166.859 329.925,164.264 329.560,162.624 329.429 C 157.901 329.051,155.228 328.474,153.406 327.438 C 152.474 326.909,150.723 326.357,149.514 326.210 C 148.305 326.064,145.665 325.261,143.648 324.427 C 141.631 323.592,138.857 322.605,137.485 322.233 C 136.113 321.861,134.095 321.067,133.002 320.468 C 131.909 319.869,130.320 319.157,129.472 318.886 C 128.625 318.616,127.174 317.883,126.249 317.259 C 125.324 316.635,123.692 315.750,122.622 315.294 C 121.552 314.837,119.781 313.871,118.688 313.147 C 117.594 312.423,116.146 311.495,115.469 311.084 C 107.140 306.032,94.166 294.362,86.790 285.288 C 85.190 283.320,83.303 281.008,82.597 280.151 C 81.890 279.294,81.044 278.114,80.716 277.529 C 80.388 276.944,79.706 275.946,79.201 275.310 C 76.929 272.451,72.834 265.793,70.054 260.437 C 68.975 258.360,67.677 255.865,67.168 254.894 C 65.854 252.384,65.867 249.724,67.197 248.999 C 68.288 248.404,81.997 248.497,117.694 249.341 M315.528 254.332 C 315.382 254.912,315.452 255.571,315.684 255.803 C 315.978 256.097,316.103 255.784,316.103 254.751 C 316.103 253.020,315.895 252.868,315.528 254.332 M308.946 266.600 C 308.946 267.329,308.734 267.594,308.151 267.594 C 307.221 267.594,307.187 267.457,307.849 266.396 C 308.519 265.324,308.946 265.403,308.946 266.600 M304.175 271.710 C 304.175 272.922,301.293 277.932,300.595 277.932 C 300.407 277.932,300.141 278.283,300.005 278.711 C 299.869 279.140,298.679 280.706,297.361 282.191 C 296.043 283.676,294.308 285.642,293.506 286.559 C 291.996 288.288,284.405 295.917,282.112 298.012 C 278.210 301.576,275.593 303.733,274.458 304.320 C 273.758 304.682,273.001 305.322,272.776 305.743 C 272.551 306.163,271.993 306.625,271.536 306.771 C 271.079 306.916,269.542 307.867,268.121 308.885 C 266.700 309.903,264.930 311.079,264.186 311.498 C 263.442 311.918,262.741 312.556,262.627 312.915 C 262.504 313.300,261.597 313.780,260.420 314.081 C 259.321 314.363,257.578 315.170,256.547 315.873 C 255.516 316.577,253.629 317.582,252.353 318.107 C 251.078 318.631,249.605 319.489,249.080 320.014 C 248.454 320.640,247.211 321.160,245.470 321.526 C 244.009 321.832,242.261 322.420,241.586 322.832 C 240.910 323.245,238.390 324.146,235.984 324.836 C 233.579 325.525,231.252 326.348,230.815 326.665 C 230.378 326.983,229.632 327.520,229.157 327.860 C 228.528 328.312,226.595 328.578,222.000 328.845 C 214.539 329.279,212.756 329.533,212.023 330.267 C 211.612 330.677,210.164 330.815,206.267 330.815 C 199.930 330.815,199.962 330.553,206.388 329.802 C 210.266 329.349,211.454 329.062,212.148 328.410 C 212.629 327.958,214.284 327.162,215.827 326.640 C 219.458 325.411,221.420 324.396,222.769 323.047 C 224.071 321.745,223.988 322.274,223.890 315.905 C 223.764 307.614,224.425 307.102,238.966 304.209 C 241.044 303.796,244.082 303.255,245.718 303.007 C 247.354 302.759,249.590 302.134,250.688 301.618 C 253.244 300.418,258.228 298.726,260.099 298.424 C 260.897 298.295,262.196 297.752,262.984 297.216 C 263.773 296.681,265.536 295.956,266.901 295.604 C 268.267 295.253,270.926 294.085,272.811 293.009 C 274.695 291.934,276.434 291.054,276.674 291.054 C 276.913 291.054,277.697 290.549,278.416 289.933 C 279.134 289.317,280.348 288.569,281.113 288.271 C 282.802 287.614,285.412 285.884,286.443 284.738 C 286.860 284.275,287.423 283.897,287.694 283.897 C 287.965 283.897,288.750 283.370,289.438 282.727 C 290.127 282.084,291.801 280.811,293.158 279.899 C 294.516 278.986,296.799 277.092,298.233 275.688 C 300.830 273.146,304.175 270.907,304.175 271.710 " stroke="none" fill="#588abd" fill-rule="evenodd"></path><path id="path4" d="M173.257 57.292 C 170.811 57.619,161.285 59.367,155.865 60.484 C 154.662 60.731,152.873 61.347,151.889 61.852 C 150.905 62.357,148.936 62.991,147.515 63.260 C 144.218 63.885,134.721 67.646,133.193 68.932 C 132.552 69.471,131.441 70.035,130.725 70.184 C 130.009 70.334,128.618 70.920,127.634 71.487 C 126.650 72.053,124.643 73.119,123.173 73.855 C 121.703 74.590,120.154 75.634,119.730 76.173 C 119.305 76.712,118.361 77.360,117.630 77.613 C 115.978 78.184,109.336 82.658,109.056 83.388 C 108.943 83.684,108.290 84.212,107.606 84.561 C 106.922 84.910,105.605 85.888,104.681 86.733 C 103.756 87.579,102.837 88.270,102.639 88.270 C 102.143 88.270,87.728 102.766,85.372 105.634 C 84.324 106.909,82.669 108.898,81.694 110.053 C 80.718 111.208,79.920 112.304,79.920 112.487 C 79.920 112.671,79.008 113.962,77.892 115.357 C 76.777 116.752,75.593 118.429,75.261 119.085 C 74.930 119.742,74.328 120.641,73.923 121.085 C 73.519 121.528,72.932 122.618,72.618 123.506 C 72.305 124.394,71.610 125.594,71.075 126.172 C 69.908 127.431,65.770 135.664,65.415 137.434 C 65.277 138.122,64.816 139.000,64.391 139.384 C 63.532 140.162,63.324 142.687,64.058 143.422 C 65.098 144.462,69.277 141.628,70.339 139.164 C 70.763 138.180,71.589 136.928,72.174 136.381 C 72.760 135.835,73.561 134.761,73.954 133.996 C 74.348 133.231,75.363 131.799,76.211 130.815 C 77.058 129.831,78.258 128.343,78.877 127.508 C 81.302 124.236,89.187 116.941,94.433 113.117 C 96.402 111.682,98.635 110.022,99.396 109.429 C 100.864 108.285,102.204 107.523,108.190 104.431 C 110.246 103.369,112.286 102.184,112.724 101.797 C 113.161 101.409,114.503 100.867,115.706 100.591 C 116.909 100.316,118.698 99.692,119.682 99.207 C 120.666 98.721,122.813 98.016,124.453 97.641 C 126.093 97.266,130.298 96.212,133.797 95.298 L 140.159 93.638 152.883 93.641 L 165.606 93.645 171.012 95.129 C 173.984 95.945,178.180 96.976,180.336 97.419 C 182.492 97.863,185.167 98.643,186.281 99.153 C 187.395 99.663,189.283 100.311,190.476 100.594 C 191.668 100.876,193.787 101.791,195.183 102.628 C 196.580 103.465,198.548 104.457,199.557 104.832 C 200.566 105.207,202.107 105.994,202.982 106.579 C 203.857 107.165,204.953 107.764,205.418 107.909 C 205.883 108.055,208.203 109.615,210.573 111.377 C 212.942 113.139,215.335 114.817,215.890 115.107 C 216.445 115.397,217.709 116.500,218.700 117.559 C 219.691 118.617,221.704 120.456,223.173 121.646 C 224.643 122.835,225.845 123.954,225.845 124.132 C 225.845 124.310,227.473 126.200,229.462 128.331 C 231.452 130.463,233.405 132.833,233.803 133.598 C 234.200 134.364,235.192 135.706,236.006 136.581 C 236.820 137.455,237.746 138.797,238.062 139.563 C 238.868 141.509,241.615 144.229,243.738 145.182 C 245.938 146.169,314.912 146.908,317.742 145.974 C 319.859 145.276,321.018 143.856,320.947 142.047 C 320.875 140.211,318.130 133.852,316.684 132.172 C 316.103 131.497,315.322 130.065,314.949 128.991 C 314.305 127.139,312.325 123.756,309.863 120.305 C 309.249 119.445,308.339 118.019,307.839 117.135 C 307.340 116.252,306.618 115.166,306.235 114.723 C 305.853 114.279,304.858 112.894,304.024 111.645 C 303.190 110.395,302.167 109.265,301.751 109.133 C 301.335 109.001,300.994 108.648,300.994 108.349 C 300.994 106.360,285.974 90.988,279.544 86.397 C 278.383 85.569,276.733 84.281,275.877 83.537 C 273.562 81.524,269.623 78.834,267.594 77.882 C 266.610 77.420,265.447 76.725,265.010 76.337 C 263.729 75.202,256.495 71.537,253.567 70.540 C 252.084 70.035,250.406 69.256,249.837 68.808 C 249.268 68.361,248.066 67.804,247.165 67.570 C 246.264 67.336,243.738 66.461,241.551 65.624 C 239.364 64.788,235.748 63.719,233.516 63.250 C 231.284 62.780,228.690 62.063,227.751 61.656 C 226.812 61.248,224.702 60.709,223.062 60.457 C 221.421 60.204,217.485 59.567,214.314 59.040 C 204.109 57.343,180.412 56.334,173.257 57.292 M204.970 59.652 C 208.469 60.074,213.857 60.686,216.944 61.010 C 220.549 61.388,223.321 61.904,224.697 62.453 C 225.875 62.922,228.360 63.636,230.219 64.039 C 234.376 64.941,246.055 68.859,248.563 70.193 C 249.576 70.732,250.643 71.173,250.932 71.173 C 253.481 71.173,273.414 82.969,277.734 87.034 C 278.171 87.445,279.871 88.891,281.511 90.247 C 285.693 93.704,293.439 101.339,296.079 104.607 C 297.301 106.119,298.421 107.356,298.567 107.356 C 298.714 107.356,299.171 107.937,299.582 108.648 C 299.993 109.359,300.852 110.567,301.491 111.332 C 303.578 113.833,306.439 117.885,307.274 119.522 C 307.725 120.405,308.388 121.372,308.749 121.672 C 309.111 121.971,309.863 123.122,310.422 124.229 C 310.982 125.337,311.959 127.001,312.594 127.928 C 313.230 128.855,314.016 130.367,314.341 131.288 C 314.666 132.209,315.188 133.245,315.500 133.591 C 318.241 136.620,319.294 142.125,317.372 143.384 C 316.157 144.180,246.728 144.295,244.265 143.504 C 242.931 143.076,239.955 139.887,238.805 137.653 C 238.433 136.931,236.931 134.817,235.466 132.956 C 234.001 131.094,232.156 128.733,231.366 127.708 C 228.066 123.431,215.081 111.752,211.701 110.022 C 211.029 109.678,210.235 109.102,209.936 108.743 C 209.638 108.383,208.488 107.630,207.381 107.070 C 206.274 106.509,204.831 105.661,204.175 105.185 C 202.615 104.053,195.078 100.395,193.042 99.782 C 192.167 99.518,190.364 98.785,189.035 98.152 C 187.706 97.519,184.753 96.546,182.474 95.989 C 180.195 95.433,176.988 94.560,175.348 94.049 C 166.832 91.396,139.048 91.397,130.417 94.051 C 128.777 94.555,125.696 95.424,123.570 95.981 C 121.444 96.537,118.834 97.434,117.770 97.974 C 116.705 98.513,114.739 99.323,113.400 99.774 C 112.061 100.226,110.118 101.132,109.083 101.788 C 108.047 102.445,106.981 102.982,106.713 102.982 C 106.445 102.982,105.003 103.804,103.510 104.808 C 102.017 105.812,100.289 106.898,99.671 107.220 C 98.564 107.797,97.508 108.553,92.096 112.644 C 89.597 114.533,83.920 119.631,81.601 122.068 C 75.184 128.812,73.729 130.497,72.886 132.159 C 72.044 133.819,71.822 134.020,71.348 133.546 C 70.152 132.351,70.217 130.629,71.511 129.154 C 72.177 128.396,73.096 126.776,73.553 125.554 C 74.010 124.332,74.655 123.108,74.986 122.833 C 75.318 122.558,76.303 121.110,77.176 119.616 C 78.049 118.121,78.901 116.899,79.070 116.899 C 79.238 116.899,79.754 116.228,80.216 115.408 C 81.394 113.315,85.652 107.930,89.846 103.230 C 92.594 100.151,99.442 93.397,102.194 91.054 C 103.349 90.070,105.028 88.632,105.924 87.858 C 106.821 87.085,108.270 85.962,109.145 85.363 C 110.020 84.764,112.167 83.212,113.917 81.913 C 115.666 80.614,117.992 79.077,119.085 78.498 C 120.179 77.918,121.365 77.188,121.720 76.876 C 122.447 76.237,127.888 73.287,131.213 71.729 C 132.416 71.165,134.800 70.005,136.512 69.149 C 138.224 68.294,139.888 67.594,140.210 67.594 C 140.532 67.594,142.442 66.899,144.454 66.049 C 146.465 65.198,149.453 64.202,151.093 63.835 C 152.734 63.468,154.881 62.811,155.865 62.374 C 156.849 61.937,159.533 61.320,161.829 61.003 C 180.410 58.432,178.529 58.580,190.258 58.757 C 195.246 58.832,201.170 59.192,204.970 59.652 M82.306 162.264 C 71.817 163.000,68.123 163.854,65.571 166.134 C 62.210 169.135,61.472 170.053,60.083 172.962 L 58.660 175.944 58.391 183.698 C 57.405 212.098,58.672 221.282,63.802 222.920 C 64.231 223.057,64.895 223.567,65.278 224.054 C 66.599 225.733,69.462 226.560,76.970 227.431 C 80.889 227.887,85.437 228.416,87.078 228.609 C 101.738 230.331,131.782 228.638,137.376 225.775 C 140.498 224.176,143.132 221.318,145.006 217.495 L 146.078 215.308 146.417 201.590 C 147.109 173.586,146.013 169.494,136.534 164.686 C 132.507 162.643,98.524 161.125,82.306 162.264 M152.074 163.388 C 149.584 164.434,149.392 166.648,151.571 169.191 C 153.430 171.359,164.328 182.660,169.760 188.051 C 173.633 191.895,174.950 193.666,174.950 195.028 C 174.950 196.152,172.843 199.425,171.739 200.016 C 170.480 200.690,165.805 205.279,165.805 205.841 C 165.805 206.127,165.612 206.362,165.376 206.362 C 164.979 206.362,151.879 218.935,150.352 220.782 C 150.213 220.950,149.607 221.455,149.006 221.904 C 147.622 222.939,147.497 225.209,148.737 226.785 L 149.561 227.833 160.992 227.833 C 174.015 227.833,175.233 227.630,177.341 225.116 C 178.564 223.656,181.571 220.440,189.617 211.986 L 193.914 207.471 195.068 208.076 C 195.703 208.409,196.903 209.501,197.734 210.504 C 198.565 211.506,199.772 212.599,200.417 212.933 C 201.063 213.266,201.590 213.739,201.590 213.983 C 201.590 214.497,204.476 217.949,207.356 220.881 C 208.449 221.994,210.060 223.679,210.934 224.625 C 213.820 227.745,214.165 227.814,226.956 227.824 L 238.207 227.833 239.183 226.857 C 241.289 224.751,240.741 223.502,235.487 218.429 C 232.917 215.948,230.547 213.633,230.219 213.283 C 227.277 210.150,223.763 206.759,223.458 206.759 C 223.251 206.759,222.810 206.232,222.476 205.588 C 222.143 204.944,220.408 203.151,218.619 201.603 C 215.013 198.481,213.917 196.989,213.917 195.203 C 213.917 193.695,215.267 190.997,216.196 190.651 C 216.582 190.507,218.032 189.197,219.418 187.739 C 220.804 186.282,225.769 181.184,230.452 176.410 C 239.700 166.983,240.047 166.434,238.207 164.159 L 237.447 163.221 226.487 163.103 C 211.703 162.945,211.969 162.826,203.560 173.360 C 200.740 176.893,201.321 176.258,197.509 179.964 C 195.811 181.615,194.275 182.906,194.096 182.834 C 193.682 182.669,186.307 174.740,182.903 170.801 C 181.481 169.156,180.050 167.711,179.722 167.590 C 179.394 167.469,178.767 166.809,178.330 166.124 C 176.474 163.216,176.543 163.230,164.087 163.135 C 157.925 163.087,152.519 163.202,152.074 163.388 M245.636 163.642 C 243.094 165.021,243.135 166.938,245.767 169.781 C 246.881 170.984,248.005 172.267,248.264 172.631 C 248.524 172.996,250.281 174.964,252.169 177.005 C 257.466 182.732,263.493 189.522,266.121 192.724 C 267.431 194.320,268.630 195.626,268.785 195.626 C 268.939 195.626,269.853 196.646,270.815 197.892 C 271.777 199.138,273.638 201.301,274.950 202.700 L 277.336 205.243 277.535 215.246 C 277.803 228.722,277.106 227.979,289.264 227.766 C 300.572 227.569,300.199 228.001,300.199 215.109 C 300.199 205.393,300.344 204.642,302.744 201.950 C 303.641 200.945,305.179 199.085,306.163 197.816 C 307.147 196.547,308.612 194.775,309.418 193.877 C 310.224 192.980,311.874 191.083,313.085 189.662 C 314.297 188.241,315.695 186.631,316.193 186.085 C 318.642 183.399,322.106 179.197,322.517 178.414 C 322.771 177.931,323.623 176.909,324.412 176.143 C 326.804 173.820,328.705 171.568,329.388 170.247 C 329.745 169.558,330.480 168.703,331.022 168.348 C 332.247 167.545,332.356 165.528,331.248 164.159 L 330.489 163.221 319.534 163.103 C 307.225 162.972,307.400 162.939,304.517 165.910 C 303.635 166.819,302.567 168.241,302.144 169.070 C 301.721 169.898,301.209 170.577,301.005 170.577 C 300.801 170.577,300.055 171.426,299.346 172.465 C 298.638 173.504,297.918 174.412,297.747 174.483 C 297.411 174.622,293.911 179.213,292.172 181.795 C 290.306 184.566,289.872 184.891,288.037 184.891 C 286.730 184.891,286.282 184.720,286.102 184.154 C 285.973 183.748,285.335 182.942,284.684 182.361 C 284.032 181.781,283.499 181.127,283.499 180.908 C 283.499 180.689,282.560 179.460,281.412 178.177 C 280.263 176.894,278.651 174.973,277.829 173.906 C 271.798 166.085,269.818 164.025,267.793 163.466 C 265.233 162.758,246.997 162.903,245.636 163.642 M121.471 165.008 C 130.543 165.480,132.604 165.871,136.827 167.920 L 140.254 169.583 141.914 173.120 C 144.169 177.926,144.512 181.638,144.159 197.416 C 143.595 222.661,141.913 224.716,120.875 225.849 C 96.801 227.145,74.075 225.720,67.691 222.514 L 64.178 220.749 62.699 217.551 C 60.191 212.129,59.662 205.839,60.404 190.258 C 61.098 175.678,62.392 171.141,66.610 168.500 C 70.614 165.993,72.100 165.563,79.125 164.876 C 82.325 164.563,114.876 164.664,121.471 165.008 M174.649 166.150 C 176.042 166.861,178.286 169.091,181.504 172.962 C 183.987 175.951,188.117 180.445,191.020 183.319 C 194.709 186.972,194.450 187.124,205.253 175.022 C 209.798 169.930,213.021 166.660,213.970 166.175 C 216.036 165.122,233.433 164.998,234.902 166.027 C 236.323 167.022,237.053 166.122,224.147 179.303 C 208.900 194.876,208.980 194.757,211.644 197.875 C 213.181 199.675,235.700 222.024,236.747 222.790 C 237.418 223.281,237.383 223.383,236.197 224.381 L 234.929 225.447 225.288 225.447 L 215.647 225.447 213.141 223.278 C 211.763 222.084,210.407 220.787,210.128 220.395 C 209.848 220.003,208.781 218.787,207.756 217.694 C 206.731 216.600,204.093 213.693,201.893 211.233 C 199.692 208.772,197.765 206.759,197.609 206.759 C 197.453 206.759,196.651 206.223,195.825 205.567 C 195.000 204.911,194.159 204.374,193.958 204.374 C 193.363 204.374,186.664 211.278,178.378 220.432 C 173.684 225.617,174.031 225.510,162.413 225.368 C 152.969 225.252,152.680 225.224,151.816 224.359 L 150.927 223.469 156.676 217.863 C 182.136 193.038,180.599 195.896,172.851 187.791 C 165.042 179.622,159.235 173.588,158.025 172.385 C 157.355 171.719,155.955 170.246,154.916 169.114 L 153.025 167.054 153.849 166.231 C 155.053 165.026,172.312 164.959,174.649 166.150 M268.263 166.421 C 268.959 166.868,270.391 168.363,271.444 169.741 C 275.202 174.659,275.612 175.153,276.199 175.482 C 276.526 175.665,277.101 176.320,277.476 176.937 C 280.127 181.297,286.428 188.072,287.830 188.070 C 289.645 188.068,291.699 186.830,292.568 185.214 C 292.938 184.527,293.815 183.308,294.518 182.507 C 295.221 181.705,296.862 179.632,298.164 177.900 C 301.667 173.243,303.702 170.760,306.344 167.917 L 308.712 165.368 318.160 165.487 C 330.510 165.643,330.493 165.630,325.829 171.062 C 324.837 172.217,323.422 173.877,322.683 174.751 C 321.945 175.626,320.339 177.505,319.115 178.926 C 317.891 180.348,316.281 182.227,315.537 183.101 C 314.793 183.976,313.319 185.694,312.261 186.919 C 311.203 188.145,308.638 191.175,306.561 193.655 C 304.483 196.134,302.135 198.889,301.343 199.777 C 297.923 203.610,297.638 204.694,297.416 214.696 L 297.217 223.627 295.828 224.563 C 293.751 225.962,282.457 225.782,280.404 224.317 L 279.099 223.386 279.174 214.377 C 279.267 203.344,279.525 204.083,273.066 196.889 C 270.380 193.898,267.111 190.199,265.801 188.668 C 264.491 187.137,263.290 185.827,263.133 185.756 C 262.975 185.685,261.648 184.179,260.184 182.409 C 258.719 180.639,256.880 178.543,256.097 177.750 C 255.313 176.958,253.956 175.425,253.082 174.343 C 252.207 173.262,250.362 171.178,248.981 169.712 L 246.471 167.048 247.317 166.202 C 248.582 164.937,266.244 165.121,268.263 166.421 M87.674 178.937 C 79.467 179.822,77.395 183.450,77.605 196.571 C 77.749 205.544,77.809 205.775,80.829 208.915 C 83.497 211.690,83.768 211.725,102.584 211.727 L 119.085 211.730 121.073 210.736 C 125.754 208.395,126.840 205.384,126.837 194.754 C 126.832 179.423,125.272 178.491,99.801 178.598 C 94.662 178.619,89.205 178.772,87.674 178.937 M118.290 182.192 C 121.862 183.058,123.108 183.830,123.417 185.370 C 124.399 190.267,123.890 205.008,122.693 206.330 C 119.346 210.029,89.315 210.996,83.373 207.596 L 81.194 206.349 80.704 202.901 C 80.145 198.963,80.372 189.027,81.093 185.839 C 81.611 183.551,82.692 182.850,87.674 181.573 C 89.583 181.084,115.914 181.616,118.290 182.192 M64.811 246.394 C 62.097 247.442,61.820 250.832,64.216 253.678 C 64.492 254.006,65.006 255.280,65.357 256.509 C 65.709 257.737,66.243 258.948,66.545 259.199 C 66.848 259.450,67.476 260.701,67.943 261.980 C 68.409 263.259,69.497 265.108,70.361 266.089 C 71.225 267.070,72.173 268.571,72.468 269.424 C 72.764 270.276,73.667 271.838,74.475 272.893 C 75.283 273.949,75.944 274.971,75.944 275.164 C 75.944 275.358,76.707 276.462,77.639 277.619 C 78.571 278.775,79.632 280.189,79.997 280.759 C 80.362 281.330,80.914 282.050,81.223 282.359 C 81.532 282.668,82.235 283.634,82.786 284.507 C 83.337 285.380,84.273 286.539,84.867 287.083 C 85.460 287.627,86.156 288.315,86.412 288.612 C 88.858 291.447,89.654 292.318,91.438 294.110 C 93.639 296.321,94.019 296.688,95.190 297.734 C 95.606 298.105,96.930 299.438,98.131 300.696 C 99.333 301.953,100.474 302.982,100.666 302.982 C 101.008 302.982,101.575 303.471,105.483 307.142 C 106.530 308.126,108.230 309.418,109.260 310.012 C 110.290 310.607,111.259 311.295,111.413 311.542 C 111.566 311.788,112.461 312.328,113.401 312.743 C 114.340 313.157,115.467 313.888,115.905 314.367 C 116.933 315.493,124.274 319.482,126.507 320.129 C 127.455 320.403,128.790 321.105,129.474 321.689 C 130.157 322.274,132.267 323.313,134.163 323.999 C 136.058 324.685,138.149 325.525,138.810 325.867 C 139.470 326.208,141.637 326.843,143.625 327.277 C 145.614 327.711,147.731 328.415,148.331 328.842 C 149.465 329.650,149.883 329.770,160.663 332.377 C 166.772 333.855,168.112 334.029,179.152 334.777 C 185.698 335.221,191.590 335.655,192.247 335.742 C 195.335 336.149,218.783 334.045,222.664 333.013 C 224.523 332.519,228.174 331.546,230.779 330.851 C 233.383 330.156,236.035 329.215,236.673 328.761 C 237.311 328.307,239.190 327.588,240.849 327.163 C 242.508 326.738,244.687 325.974,245.691 325.465 C 246.695 324.956,248.672 324.070,250.085 323.496 C 251.498 322.922,253.108 322.032,253.663 321.517 C 254.218 321.003,255.515 320.304,256.546 319.962 C 257.577 319.621,259.187 318.825,260.125 318.193 C 261.062 317.560,262.634 316.637,263.618 316.140 C 264.602 315.643,265.855 314.825,266.402 314.322 C 266.948 313.819,268.144 313.033,269.059 312.574 C 269.973 312.116,270.835 311.557,270.973 311.333 C 271.112 311.109,272.153 310.327,273.287 309.596 C 274.420 308.865,275.706 307.862,276.143 307.366 C 276.581 306.871,277.833 305.886,278.926 305.178 C 282.992 302.544,294.007 291.759,298.631 285.885 C 299.922 284.245,301.783 281.918,302.766 280.716 C 305.086 277.877,306.327 276.117,307.392 274.155 C 307.868 273.280,308.851 271.902,309.578 271.091 C 310.305 270.281,311.291 268.850,311.770 267.911 C 312.248 266.971,313.076 265.629,313.610 264.928 C 314.143 264.228,314.836 262.803,315.149 261.763 C 315.462 260.722,316.152 259.417,316.681 258.862 C 317.622 257.876,319.372 253.513,319.815 251.050 C 320.300 248.352,316.099 248.591,314.584 251.348 C 314.217 252.016,312.988 253.743,311.853 255.185 C 310.718 256.628,309.680 258.244,309.546 258.777 C 309.412 259.310,308.552 260.503,307.633 261.429 C 306.715 262.354,305.249 263.970,304.374 265.020 C 303.499 266.070,301.540 268.107,300.020 269.548 C 298.500 270.988,296.434 272.972,295.428 273.956 C 294.423 274.940,292.451 276.551,291.046 277.535 C 289.641 278.519,287.879 279.861,287.129 280.517 C 285.724 281.747,284.664 282.398,278.497 285.823 C 276.511 286.926,274.664 288.095,274.394 288.421 C 274.123 288.747,272.764 289.382,271.375 289.831 C 269.985 290.280,268.253 290.991,267.526 291.412 C 266.798 291.833,264.414 292.707,262.227 293.356 C 260.040 294.004,257.172 294.989,255.855 295.545 C 254.122 296.276,251.865 296.735,247.703 297.204 C 244.538 297.560,240.338 298.137,238.370 298.485 C 234.222 299.218,227.037 299.298,222.465 298.661 C 220.716 298.418,216.213 297.953,212.459 297.628 C 204.516 296.941,194.882 295.074,192.158 293.694 C 191.112 293.164,189.153 292.282,187.804 291.734 C 186.454 291.186,184.576 290.206,183.629 289.557 C 182.683 288.908,181.014 287.904,179.920 287.325 C 172.785 283.548,159.307 271.856,153.283 264.215 C 152.421 263.121,151.173 261.678,150.510 261.008 C 149.847 260.338,148.231 258.055,146.918 255.935 C 143.280 250.056,141.229 247.332,140.043 246.807 C 138.917 246.307,66.071 245.908,64.811 246.394 M132.697 248.068 C 140.570 248.420,140.141 248.229,142.809 252.565 C 143.757 254.106,145.117 256.105,145.830 257.007 C 146.543 257.910,147.438 259.161,147.818 259.788 C 148.938 261.635,153.010 266.431,157.654 271.375 C 159.826 273.688,167.397 280.357,168.821 281.214 C 169.459 281.597,171.233 282.893,172.763 284.094 C 174.294 285.295,176.762 286.901,178.247 287.664 C 179.732 288.426,181.538 289.501,182.261 290.052 C 182.983 290.603,183.758 291.054,183.983 291.054 C 184.208 291.054,186.249 292.019,188.518 293.199 C 190.787 294.379,193.667 295.554,194.917 295.809 C 196.167 296.065,198.151 296.611,199.325 297.024 C 200.499 297.437,203.502 297.979,205.998 298.230 C 208.495 298.480,212.755 299.125,215.467 299.663 C 224.159 301.387,235.595 301.345,243.936 299.560 C 245.467 299.232,249.293 298.519,252.438 297.974 C 255.584 297.429,258.633 296.738,259.214 296.437 C 259.795 296.137,261.785 295.403,263.634 294.807 C 265.484 294.211,268.429 293.049,270.179 292.224 C 271.928 291.400,274.165 290.348,275.149 289.886 C 278.598 288.268,285.435 284.015,290.067 280.605 C 296.080 276.178,310.934 261.726,310.934 260.303 C 310.934 259.495,313.322 257.895,313.806 258.379 C 314.475 259.047,313.787 261.513,312.712 262.303 C 312.144 262.720,311.384 264.018,310.903 265.393 C 310.446 266.697,309.554 268.355,308.920 269.076 C 308.287 269.798,307.472 270.968,307.110 271.675 C 306.747 272.383,305.178 274.633,303.623 276.674 C 302.068 278.715,300.527 280.783,300.199 281.269 C 297.636 285.063,285.854 297.202,279.861 302.223 C 273.633 307.441,263.807 314.405,261.360 315.335 C 260.820 315.541,259.580 316.257,258.607 316.927 C 257.633 317.597,255.820 318.594,254.579 319.144 C 253.337 319.693,251.866 320.460,251.310 320.850 C 250.753 321.239,249.269 321.938,248.011 322.404 C 246.753 322.869,244.681 323.776,243.406 324.420 C 242.132 325.063,239.954 325.884,238.565 326.243 C 237.177 326.603,235.172 327.338,234.109 327.876 C 233.047 328.415,230.082 329.289,227.520 329.818 C 224.959 330.348,221.113 331.232,218.974 331.782 C 207.832 334.651,179.243 334.556,166.640 331.610 C 163.885 330.965,159.930 330.153,157.853 329.805 C 155.775 329.457,153.091 328.739,151.889 328.209 C 150.686 327.679,148.454 326.962,146.929 326.615 C 145.403 326.269,142.537 325.296,140.560 324.455 C 138.583 323.613,136.431 322.798,135.779 322.643 C 135.126 322.489,133.429 321.765,132.008 321.035 C 130.586 320.305,128.439 319.258,127.237 318.708 C 124.268 317.351,120.219 315.107,118.290 313.750 C 117.416 313.135,115.984 312.245,115.109 311.773 C 114.235 311.301,112.414 310.070,111.064 309.036 C 109.714 308.003,107.602 306.384,106.371 305.439 C 98.280 299.228,85.415 285.789,80.229 278.131 C 79.637 277.256,77.894 274.691,76.355 272.429 C 74.817 270.168,73.559 268.173,73.559 267.996 C 73.559 267.819,72.908 266.717,72.113 265.547 C 71.317 264.377,70.308 262.620,69.869 261.643 C 69.430 260.666,68.537 258.998,67.883 257.936 C 64.766 252.869,64.424 248.474,67.102 247.884 C 67.701 247.752,68.360 247.603,68.566 247.554 C 69.475 247.335,126.529 247.792,132.697 248.068 M316.103 254.751 C 316.103 255.784,315.978 256.097,315.684 255.803 C 315.315 255.434,315.540 253.280,315.948 253.280 C 316.033 253.280,316.103 253.942,316.103 254.751 " stroke="none" fill="#bc9fb1" fill-rule="evenodd"></path></g></svg>